<svg width="25" height="29" viewBox="0 0 25 29" fill="none" xmlns="http://www.w3.org/2000/svg">
<path d="M16.1425 10.3132L15.6668 22.6882M9.08325 22.6882L8.6075 10.3132M22.3135 5.89947C22.7838 5.97097 23.2512 6.04659 23.7188 6.12772M22.3135 5.89947L20.845 24.9886C20.7851 25.7658 20.434 26.4917 19.8619 27.0212C19.2898 27.5507 18.539 27.8447 17.7595 27.8445H6.9905C6.21101 27.8447 5.46016 27.5507 4.8881 27.0212C4.31604 26.4917 3.96493 25.7658 3.905 24.9886L2.4365 5.89947M22.3135 5.89947C20.7266 5.65955 19.1314 5.47747 17.5312 5.35359M2.4365 5.89947C1.96625 5.96959 1.49875 6.04522 1.03125 6.12634M2.4365 5.89947C4.02343 5.65955 5.61857 5.47748 7.21875 5.35359M17.5312 5.35359V4.09409C17.5312 2.47159 16.28 1.11859 14.6575 1.06772C13.1362 1.01909 11.6138 1.01909 10.0925 1.06772C8.47 1.11859 7.21875 2.47297 7.21875 4.09409V5.35359M17.5312 5.35359C14.0989 5.08832 10.6511 5.08832 7.21875 5.35359" stroke="white" stroke-width="2.0625" stroke-linecap="round" stroke-linejoin="round"/>
</svg>
